<svg xmlns="http://www.w3.org/2000/svg" width="256" height="256" viewBox="0 0 100 100"><rect width="100" height="100" rx="20" fill="#7d6ee7"></rect><path fill="#fff" d="M3.02 77.50L3.02 77.50Q-0.94 77.50-0.94 74.25L-0.94 74.25L-0.94 23.41Q0.68 21.79 3.92 21.79L3.92 21.79Q6.08 21.79 7.61 22.64Q9.14 23.50 10.40 25.75L10.40 25.75L27.59 54.55Q28.67 56.44 29.84 58.55Q31.01 60.67 32.09 62.78Q33.17 64.89 34.12 66.74Q35.06 68.59 35.69 69.84L35.69 69.84L36.05 69.75Q35.33 62.47 35.20 55.09Q35.06 47.70 35.06 40.69L35.06 40.69L35.06 22.51Q35.60 22.33 36.50 22.10Q37.40 21.88 38.48 21.88L38.48 21.88Q42.44 21.88 42.44 25.12L42.44 25.12L42.44 76.06Q41.63 76.78 40.37 77.18Q39.11 77.59 37.58 77.59L37.58 77.59Q35.42 77.59 33.89 76.73Q32.36 75.88 31.10 73.63L31.10 73.63L14.00 44.83Q12.92 43.03 11.71 40.87Q10.49 38.71 9.37 36.64Q8.24 34.57 7.30 32.68Q6.35 30.79 5.72 29.53L5.72 29.53L5.36 29.62Q5.81 33.94 6.08 39.47Q6.35 45.01 6.35 49.95L6.35 49.95L6.35 76.86Q5.90 77.05 4.96 77.27Q4.01 77.50 3.02 77.50ZM100.94 58.15L100.94 58.15Q100.94 62.73 99.55 66.42Q98.15 70.12 95.41 72.72Q92.66 75.34 88.70 76.78Q84.74 78.22 79.61 78.22L79.61 78.22Q74.48 78.22 70.52 76.78Q66.56 75.34 63.86 72.72Q61.16 70.12 59.77 66.42Q58.37 62.73 58.37 58.15L58.37 58.15L58.37 22.51Q58.82 22.33 59.77 22.10Q60.71 21.88 61.79 21.88L61.79 21.88Q65.66 21.88 65.66 25.21L65.66 25.21L65.66 57.52Q65.66 61.12 66.74 63.82Q67.82 66.52 69.67 68.36Q71.51 70.20 74.08 71.11Q76.64 72.00 79.61 72.00L79.61 72.00Q82.58 72.00 85.15 71.11Q87.71 70.20 89.56 68.36Q91.40 66.52 92.48 63.82Q93.56 61.12 93.56 57.52L93.56 57.52L93.56 22.51Q94.01 22.33 94.96 22.10Q95.90 21.88 96.98 21.88L96.98 21.88Q100.94 21.88 100.94 25.21L100.94 25.21L100.94 58.15Z"></path></svg>